<?xml version="1.0" standalone="no"?>
<!DOCTYPE svg PUBLIC "-//W3C//DTD SVG 20010904//EN"
 "http://www.w3.org/TR/2001/REC-SVG-20010904/DTD/svg10.dtd">
<svg version="1.0" xmlns="http://www.w3.org/2000/svg"
 width="512.000000pt" height="512.000000pt" viewBox="0 0 512.000000 512.000000"
 preserveAspectRatio="xMidYMid meet">
<metadata>
Created by potrace 1.14, written by Peter Selinger 2001-2017
</metadata>
<g transform="translate(0.000000,512.000000) scale(0.100000,-0.100000)"
fill="#000000" stroke="none">
<path d="M2888 5100 c-273 -59 -508 -243 -626 -491 -34 -72 -68 -174 -77 -235
l-6 -41 -117 -6 c-134 -7 -245 -26 -380 -63 -51 -14 -119 -28 -150 -29 -131
-8 -256 -33 -350 -72 -340 -138 -588 -446 -638 -793 -3 -19 -7 -41 -10 -48 -2
-8 -4 -108 -5 -223 l-1 -209 -29 0 c-37 0 -34 1 -96 -21 -215 -74 -325 -311
-242 -522 47 -118 154 -211 277 -238 28 -7 52 -13 52 -14 0 -1 -9 -31 -20 -65
-28 -88 -101 -239 -154 -318 -45 -68 -49 -79 -47 -120 2 -34 44 -72 81 -72 51
0 157 39 314 116 39 19 73 34 77 34 4 0 19 -20 33 -44 61 -105 200 -269 301
-356 93 -80 102 -88 177 -139 102 -69 224 -132 343 -176 55 -20 108 -40 119
-44 16 -6 12 -11 -25 -35 -127 -84 -233 -205 -304 -349 -62 -127 -85 -223 -92
-389 l-6 -138 882 0 882 0 -2 124 c-2 202 -44 339 -156 515 -42 66 -159 185
-223 226 -42 28 -61 49 -42 50 21 2 158 53 237 90 226 105 462 291 595 470 25
33 47 62 50 65 14 13 97 152 130 218 l36 72 46 -47 c58 -61 163 -159 211 -198
21 -16 50 -40 65 -53 37 -31 215 -152 277 -187 187 -108 502 -237 579 -237 75
0 129 55 130 132 1 39 -7 58 -66 146 -167 253 -257 487 -302 784 -11 74 -14
245 -15 780 -1 377 -4 712 -6 745 -8 99 -23 214 -31 226 -2 3 -6 19 -8 36 -22
122 -140 379 -237 518 -83 117 -250 283 -367 365 -185 130 -392 216 -612 256
-19 4 -44 9 -55 11 -11 2 -85 6 -165 8 -113 2 -164 -1 -232 -15z"/>
</g>
</svg>
